<svg width="200" height="200" viewBox="0 0 200 200" fill="none" xmlns="http://www.w3.org/2000/svg">
<g clip-path="url(#clip0_4251_3704)">
<path fill-rule="evenodd" clip-rule="evenodd" d="M127.779 58.4265C119.556 52.9325 109.889 50 100 50V0C119.778 0 139.112 5.8649 155.557 16.8531C172.002 27.8412 184.819 43.4591 192.388 61.7315C199.957 80.004 201.937 100.111 198.079 119.509C194.22 138.907 184.696 156.726 170.711 170.711C156.726 184.696 138.907 194.22 119.509 198.079C100.111 201.937 80.004 199.957 61.7315 192.388C43.4591 184.819 27.8412 172.002 16.8531 155.557C5.8649 139.112 0 119.778 0 100H50C50 109.889 52.9325 119.556 58.4265 127.779C63.9205 136.001 71.7295 142.41 80.866 146.194C90.002 149.979 100.056 150.969 109.755 149.039C119.454 147.11 128.363 142.348 135.356 135.356C142.348 128.363 147.11 119.454 149.039 109.755C150.969 100.056 149.979 90.002 146.194 80.866C142.41 71.7295 136.001 63.9205 127.779 58.4265Z" fill="white"/>
<path fill-rule="evenodd" clip-rule="evenodd" d="M50 2.16563e-05C50 6.56612 48.7067 13.0679 46.194 19.1342C43.6812 25.2005 39.9983 30.7124 35.3553 35.3554C30.7124 39.9983 25.2005 43.6813 19.1342 46.194C13.0679 48.7067 6.56608 50 2.18555e-06 50L0 100C13.1322 100 26.1358 97.4135 38.2684 92.388C50.401 87.3625 61.425 79.9965 70.7105 70.7105C79.9965 61.425 87.3625 50.401 92.388 38.2684C97.4135 26.1358 100 13.1322 100 0L50 2.16563e-05Z" fill="white"/>
</g>
<defs>
<clipPath id="clip0_4251_3704">
<rect width="200" height="200" fill="white"/>
</clipPath>
</defs>
</svg>
