<svg width="100" height="28" viewBox="0 0 100 28" fill="none" xmlns="http://www.w3.org/2000/svg">
<g clip-path="url(#clip0_4252_3709)">
<path fill-rule="evenodd" clip-rule="evenodd" d="M23.3334 9.01118C22.3467 8.3519 21.1867 8 20 8V2C22.3734 2 24.6934 2.70379 26.6668 4.02237C28.6402 5.34094 30.1783 7.21509 31.0866 9.40778C31.9948 11.6005 32.2324 14.0133 31.7694 16.3411C31.3064 18.6688 30.1635 20.8071 28.4853 22.4853C26.8071 24.1635 24.6688 25.3064 22.3411 25.7694C20.0133 26.2324 17.6005 25.9948 15.4078 25.0866C13.2151 24.1783 11.3409 22.6402 10.0224 20.6668C8.70379 18.6934 8 16.3734 8 14H14C14 15.1867 14.3519 16.3467 15.0112 17.3334C15.6705 18.3201 16.6075 19.0891 17.7039 19.5433C18.8002 19.9974 20.0067 20.1162 21.1705 19.8847C22.3344 19.6532 23.4035 19.0818 24.2427 18.2427C25.0818 17.4035 25.6532 16.3344 25.8847 15.1705C26.1162 14.0067 25.9974 12.8002 25.5433 11.7039C25.0891 10.6075 24.3201 9.67046 23.3334 9.01118Z" fill="white"/>
<path fill-rule="evenodd" clip-rule="evenodd" d="M14 2C14 2.78793 13.8448 3.56815 13.5433 4.2961C13.2417 5.02406 12.7998 5.68549 12.2426 6.24264C11.6855 6.7998 11.0241 7.24175 10.2961 7.54328C9.56814 7.84481 8.78793 8 8 8L8 14C9.57586 14 11.1363 13.6896 12.5922 13.0866C14.0481 12.4835 15.371 11.5996 16.4853 10.4853C17.5996 9.371 18.4835 8.04812 19.0866 6.5922C19.6896 5.13629 20 3.57586 20 2L14 2Z" fill="white"/>
</g>
<path d="M46.8359 14.7598H43.1836L43.1641 12.748H46.2305C46.7708 12.748 47.2135 12.6797 47.5586 12.543C47.9036 12.3997 48.1608 12.1947 48.3301 11.9277C48.5059 11.6543 48.5938 11.3223 48.5938 10.9316C48.5938 10.4889 48.5091 10.1309 48.3398 9.85742C48.1771 9.58398 47.9199 9.38542 47.5684 9.26172C47.2233 9.13802 46.7773 9.07617 46.2305 9.07617H44.1992V21H41.2695V6.78125H46.2305C47.0573 6.78125 47.7962 6.85938 48.4473 7.01562C49.1048 7.17188 49.6615 7.40951 50.1172 7.72852C50.5729 8.04753 50.9212 8.45117 51.1621 8.93945C51.403 9.42122 51.5234 9.99414 51.5234 10.6582C51.5234 11.2441 51.39 11.7845 51.123 12.2793C50.8626 12.7741 50.4492 13.1777 49.8828 13.4902C49.3229 13.8027 48.5905 13.9753 47.6855 14.0078L46.8359 14.7598ZM46.709 21H42.3828L43.5254 18.7148H46.709C47.2233 18.7148 47.6432 18.6335 47.9688 18.4707C48.2943 18.3014 48.5352 18.0736 48.6914 17.7871C48.8477 17.5007 48.9258 17.1719 48.9258 16.8008C48.9258 16.3841 48.8542 16.0228 48.7109 15.7168C48.5742 15.4108 48.3529 15.1764 48.0469 15.0137C47.7409 14.8444 47.3372 14.7598 46.8359 14.7598H44.0137L44.0332 12.748H47.5488L48.2227 13.5391C49.0885 13.526 49.7852 13.679 50.3125 13.998C50.8464 14.3105 51.2337 14.7174 51.4746 15.2188C51.722 15.7201 51.8457 16.2572 51.8457 16.8301C51.8457 17.7415 51.6471 18.5098 51.25 19.1348C50.8529 19.7533 50.2702 20.2188 49.502 20.5312C48.7402 20.8438 47.8092 21 46.709 21ZM58.7703 18.6172V13.9102C58.7703 13.5716 58.715 13.2819 58.6043 13.041C58.4936 12.7936 58.3211 12.6016 58.0867 12.4648C57.8589 12.3281 57.5626 12.2598 57.198 12.2598C56.8855 12.2598 56.6154 12.3151 56.3875 12.4258C56.1596 12.5299 55.9839 12.6829 55.8602 12.8848C55.7365 13.0801 55.6746 13.3112 55.6746 13.5781H52.8621C52.8621 13.1289 52.9663 12.7025 53.1746 12.2988C53.3829 11.8952 53.6857 11.5404 54.0828 11.2344C54.4799 10.9219 54.952 10.6777 55.4988 10.502C56.0522 10.3262 56.6707 10.2383 57.3543 10.2383C58.1746 10.2383 58.9038 10.375 59.5418 10.6484C60.1798 10.9219 60.6811 11.332 61.0457 11.8789C61.4168 12.4258 61.6023 13.1094 61.6023 13.9297V18.4512C61.6023 19.0306 61.6382 19.5059 61.7098 19.877C61.7814 20.2415 61.8855 20.5605 62.0223 20.834V21H59.1805C59.0437 20.7135 58.9396 20.3555 58.868 19.9258C58.8029 19.4896 58.7703 19.0534 58.7703 18.6172ZM59.1414 14.5645L59.1609 16.1562H57.5887C57.2176 16.1562 56.8953 16.1986 56.6219 16.2832C56.3484 16.3678 56.1238 16.4883 55.948 16.6445C55.7723 16.7943 55.6421 16.9701 55.5574 17.1719C55.4793 17.3737 55.4402 17.5951 55.4402 17.8359C55.4402 18.0768 55.4956 18.2949 55.6062 18.4902C55.7169 18.679 55.8764 18.8288 56.0848 18.9395C56.2931 19.0436 56.5372 19.0957 56.8172 19.0957C57.2404 19.0957 57.6082 19.0111 57.9207 18.8418C58.2332 18.6725 58.4741 18.4642 58.6434 18.2168C58.8191 17.9694 58.9103 17.735 58.9168 17.5137L59.659 18.7051C59.5548 18.972 59.4116 19.2487 59.2293 19.5352C59.0535 19.8216 58.8289 20.0918 58.5555 20.3457C58.282 20.5931 57.9533 20.7982 57.5691 20.9609C57.185 21.1172 56.7293 21.1953 56.202 21.1953C55.5314 21.1953 54.9227 21.0618 54.3758 20.7949C53.8354 20.5215 53.4057 20.1471 53.0867 19.6719C52.7742 19.1901 52.618 18.6432 52.618 18.0312C52.618 17.4779 52.7221 16.9863 52.9305 16.5566C53.1388 16.127 53.4448 15.7656 53.8484 15.4727C54.2586 15.1732 54.7697 14.9486 55.3816 14.7988C55.9936 14.6426 56.7033 14.5645 57.5105 14.5645H59.1414ZM71.3785 18.8027V21H63.3512V18.8027H71.3785ZM71.2223 12.0547L64.484 21H62.5992V19.3301L69.3082 10.4336H71.2223V12.0547ZM70.2262 10.4336V12.6406H62.7555V10.4336H70.2262ZM78.0492 18.6172V13.9102C78.0492 13.5716 77.9939 13.2819 77.8832 13.041C77.7725 12.7936 77.6 12.6016 77.3656 12.4648C77.1378 12.3281 76.8415 12.2598 76.477 12.2598C76.1645 12.2598 75.8943 12.3151 75.6664 12.4258C75.4385 12.5299 75.2628 12.6829 75.1391 12.8848C75.0154 13.0801 74.9535 13.3112 74.9535 13.5781H72.141C72.141 13.1289 72.2452 12.7025 72.4535 12.2988C72.6618 11.8952 72.9646 11.5404 73.3617 11.2344C73.7589 10.9219 74.2309 10.6777 74.7777 10.502C75.3311 10.3262 75.9496 10.2383 76.6332 10.2383C77.4535 10.2383 78.1827 10.375 78.8207 10.6484C79.4587 10.9219 79.96 11.332 80.3246 11.8789C80.6957 12.4258 80.8813 13.1094 80.8813 13.9297V18.4512C80.8813 19.0306 80.9171 19.5059 80.9887 19.877C81.0603 20.2415 81.1645 20.5605 81.3012 20.834V21H78.4594C78.3227 20.7135 78.2185 20.3555 78.1469 19.9258C78.0818 19.4896 78.0492 19.0534 78.0492 18.6172ZM78.4203 14.5645L78.4398 16.1562H76.8676C76.4965 16.1562 76.1742 16.1986 75.9008 16.2832C75.6273 16.3678 75.4027 16.4883 75.227 16.6445C75.0512 16.7943 74.921 16.9701 74.8363 17.1719C74.7582 17.3737 74.7191 17.5951 74.7191 17.8359C74.7191 18.0768 74.7745 18.2949 74.8852 18.4902C74.9958 18.679 75.1553 18.8288 75.3637 18.9395C75.572 19.0436 75.8161 19.0957 76.0961 19.0957C76.5193 19.0957 76.8871 19.0111 77.1996 18.8418C77.5121 18.6725 77.753 18.4642 77.9223 18.2168C78.098 17.9694 78.1892 17.735 78.1957 17.5137L78.9379 18.7051C78.8337 18.972 78.6905 19.2487 78.5082 19.5352C78.3324 19.8216 78.1078 20.0918 77.8344 20.3457C77.5609 20.5931 77.2322 20.7982 76.848 20.9609C76.4639 21.1172 76.0082 21.1953 75.4809 21.1953C74.8103 21.1953 74.2016 21.0618 73.6547 20.7949C73.1143 20.5215 72.6846 20.1471 72.3656 19.6719C72.0531 19.1901 71.8969 18.6432 71.8969 18.0312C71.8969 17.4779 72.001 16.9863 72.2094 16.5566C72.4177 16.127 72.7237 15.7656 73.1273 15.4727C73.5375 15.1732 74.0486 14.9486 74.6605 14.7988C75.2725 14.6426 75.9822 14.5645 76.7895 14.5645H78.4203ZM85.0617 12.7383V21H82.2492V10.4336H84.8957L85.0617 12.7383ZM88.2453 10.3652L88.1965 12.9727C88.0598 12.9531 87.8937 12.9368 87.6984 12.9238C87.5096 12.9043 87.3371 12.8945 87.1809 12.8945C86.7837 12.8945 86.4387 12.9466 86.1457 13.0508C85.8592 13.1484 85.6184 13.2949 85.423 13.4902C85.2342 13.6855 85.091 13.9232 84.9934 14.2031C84.9022 14.4831 84.8501 14.8021 84.8371 15.1602L84.2707 14.9844C84.2707 14.3008 84.3391 13.6725 84.4758 13.0996C84.6125 12.5202 84.8111 12.0156 85.0715 11.5859C85.3384 11.1562 85.6639 10.8242 86.048 10.5898C86.4322 10.3555 86.8716 10.2383 87.3664 10.2383C87.5227 10.2383 87.6822 10.2513 87.8449 10.2773C88.0077 10.2969 88.1411 10.3262 88.2453 10.3652ZM87.3672 19.6426C87.3672 19.2259 87.5104 18.8776 87.7969 18.5977C88.0898 18.3177 88.4772 18.1777 88.959 18.1777C89.4408 18.1777 89.8249 18.3177 90.1113 18.5977C90.4043 18.8776 90.5508 19.2259 90.5508 19.6426C90.5508 20.0592 90.4043 20.4076 90.1113 20.6875C89.8249 20.9674 89.4408 21.1074 88.959 21.1074C88.4772 21.1074 88.0898 20.9674 87.7969 20.6875C87.5104 20.4076 87.3672 20.0592 87.3672 19.6426Z" fill="white"/>
<defs>
<clipPath id="clip0_4252_3709">
<rect width="24" height="24" fill="white" transform="translate(8 2)"/>
</clipPath>
</defs>
</svg>
